<svg width="37" height="40" viewBox="0 0 37 40" fill="none" xmlns="http://www.w3.org/2000/svg">
<path d="M14.2756 14.5174C14.0134 14.254 13.8371 13.9142 13.7707 13.5443C13.3766 9.9622 12.5692 6.44061 11.3654 3.0532C11.1276 2.25562 10.6708 1.5449 10.0496 1.00575C9.4283 0.466592 8.66874 0.121744 7.86142 0.0123093C6.96933 -0.0517944 6.07712 0.135345 5.28148 0.55345C4.48584 0.971554 3.81711 1.60468 3.34777 2.3842C2.83298 3.21649 2.55967 4.18142 2.55967 5.16662C2.55967 6.15181 2.83298 7.11674 3.34777 7.94903C5.0464 10.7564 7.03775 13.3666 9.28679 15.7337C9.51915 15.9951 9.66469 16.3251 9.70252 16.6764C9.86445 19.0791 9.8048 21.4921 9.52435 23.8833C9.49064 24.0965 9.41544 24.3005 9.30322 24.4834C9.19099 24.6662 9.04403 24.8241 8.87106 24.9476C6.01904 26.9475 3.44223 29.3305 1.20973 32.0329C0.627101 32.6871 0.234883 33.4952 0.0774466 34.3657C-0.0799895 35.2363 0.00364095 36.1347 0.318877 36.9591C0.649777 37.7825 1.19116 38.4994 1.88613 39.0345C2.5811 39.5696 3.40399 39.9031 4.26832 40H4.77314C5.58034 39.9906 6.37416 39.7877 7.09096 39.4075C7.80776 39.0272 8.42759 38.4803 8.90075 37.8106C10.9853 34.8401 12.4601 31.4678 13.2362 27.8973C13.3231 27.4987 13.5572 27.15 13.8895 26.9242C15.7065 25.8513 17.6029 24.926 19.5613 24.157C19.9456 24.0178 20.3648 24.0178 20.7491 24.157C24.2406 25.8552 27.9663 26.9936 31.7957 27.5324C32.6182 27.6644 33.4604 27.5578 34.2267 27.2245C34.993 26.8913 35.6528 26.3448 36.1311 25.647C36.6359 24.8841 36.9323 23.997 36.9897 23.0774C37.0471 22.1578 36.8635 21.2392 36.4578 20.4167C36.0451 19.5617 35.4057 18.843 34.6127 18.3428C33.8197 17.8427 32.9051 17.5813 31.9738 17.5886C28.3261 17.4403 24.6784 17.8816 21.1648 18.8962C20.811 19.0342 20.42 19.0342 20.0661 18.8962C17.9907 17.6496 16.0497 16.1818 14.2756 14.5174Z" fill="#EDEDF5"/>
</svg>
