<svg width="28" height="40" viewBox="0 0 28 40" fill="none" xmlns="http://www.w3.org/2000/svg">
<path d="M20.8576 0.000482276C19.687 0.0147256 18.5689 0.493681 17.7452 1.3338L0.79697 18.7553C0.166569 19.4552 -0.123878 20.3852 0.0493999 21.3719C0.339846 22.9469 1.89109 23.9902 3.44894 23.7035L12.5914 21.8202C12.7894 21.7785 12.8934 22.0469 12.7267 22.1602L2.59246 28.7168C1.3234 29.5285 0.745811 30.9834 1.14848 32.4401C1.55114 34.3584 3.45554 35.4634 5.30054 35.0017L20.4549 31.2351C20.492 31.2253 20.5311 31.2276 20.5668 31.2417C20.6025 31.2558 20.6328 31.2809 20.6535 31.3134C20.6742 31.346 20.6842 31.3843 20.682 31.4229C20.6798 31.4615 20.6656 31.4985 20.6414 31.5284L18.2766 34.4784C17.6445 35.2901 18.6792 36.395 19.5473 35.7567L27.3299 29.2951C28.7161 28.1335 27.7936 25.8585 26.0048 26.0335L25.9866 26.0268L16.0075 27.1102C15.9674 27.1151 15.9269 27.1065 15.8921 27.0858C15.8574 27.0651 15.8304 27.0333 15.8153 26.9955C15.8003 26.9577 15.798 26.9159 15.8089 26.8767C15.8198 26.8375 15.8431 26.8029 15.8754 26.7785L25.6417 19.0969C26.2721 18.5719 26.6781 17.7619 26.5048 16.8869C26.3315 15.5486 25.239 14.6736 23.8528 14.8486L13.2416 16.4186C13.0568 16.4436 12.9545 16.2053 13.103 16.0853L23.6234 7.97372C25.6962 6.34374 25.8678 3.14378 23.9683 1.28213C23.5619 0.868148 23.0768 0.541257 22.5423 0.321034C22.0078 0.100811 21.4348 -0.00821537 20.8576 0.000482276ZM15.8144 36.425C15.5817 36.4244 15.3511 36.4702 15.136 36.5598C14.9208 36.6495 14.7254 36.7812 14.5608 36.9473C14.3963 37.1135 14.2659 37.3109 14.1771 37.5282C14.0883 37.7455 14.043 37.9783 14.0436 38.2133C14.0432 38.4482 14.0887 38.6809 14.1776 38.898C14.2664 39.115 14.3969 39.3123 14.5614 39.4783C14.7259 39.6443 14.9213 39.7758 15.1364 39.8654C15.3514 39.9549 15.5818 40.0007 15.8144 40C16.0468 40.0004 16.2771 39.9545 16.4919 39.8649C16.7067 39.7753 16.9019 39.6437 17.0663 39.4777C17.2306 39.3117 17.3609 39.1146 17.4497 38.8976C17.5384 38.6806 17.5839 38.4481 17.5835 38.2133C17.5841 37.9785 17.5388 37.7458 17.4502 37.5286C17.3615 37.3114 17.2312 37.1141 17.0669 36.9479C16.9025 36.7818 16.7072 36.65 16.4923 36.5603C16.2773 36.4706 16.047 36.4246 15.8144 36.425Z" fill="#EDEDF5"/>
</svg>
