<svg width="33" height="42" viewBox="0 0 33 42" fill="none" xmlns="http://www.w3.org/2000/svg">
<path fill-rule="evenodd" clip-rule="evenodd" d="M23.7742 1C24.8544 1 25.9246 1.187 26.9225 1.54997C27.9204 1.91296 28.8276 2.44517 29.5914 3.11583C30.3551 3.78651 30.9613 4.58308 31.3746 5.45931C31.7879 6.33559 32 7.27538 32 8.22384C32 9.17215 31.7878 10.1114 31.3746 10.9876C30.9613 11.8638 30.355 12.6603 29.5914 13.331C29.0077 13.8436 28.3397 14.2742 27.6121 14.6113C28.3398 14.9484 29.0076 15.3797 29.5914 15.8924C30.3551 16.5631 30.9613 17.3596 31.3746 18.2359C31.7879 19.1121 32 20.052 32 21.0004C31.9999 21.9486 31.7878 22.888 31.3746 23.7641C30.9613 24.6402 30.3549 25.437 29.5914 26.1076C28.8276 26.7782 27.9203 27.3105 26.9225 27.6735C25.9246 28.0364 24.8544 28.2234 23.7742 28.2234C22.6942 28.2234 21.6247 28.0364 20.6268 27.6735C19.6289 27.3105 18.7218 26.7783 17.958 26.1076C17.7803 25.9515 17.6117 25.7879 17.4516 25.6188V33.7762C17.4514 35.6918 16.5854 37.5296 15.0429 38.8842C13.5003 40.2387 11.4073 41 9.22578 41C7.0444 40.9999 4.95211 40.2386 3.40956 38.8842C1.86703 37.5296 1.00012 35.6918 1 33.7762C1 31.8605 1.8671 30.0228 3.40956 28.6681C3.99727 28.1521 4.66523 27.7224 5.38702 27.3879C4.66517 27.0534 3.99731 26.6237 3.40956 26.1076C1.86713 24.7531 1.0002 22.9159 1 21.0004C1 19.0847 1.8671 17.2471 3.40956 15.8924C3.99756 15.3761 4.66577 14.9459 5.38795 14.6113C4.66589 14.2767 3.99748 13.8473 3.40956 13.331C1.86715 11.9764 1.00008 10.1394 1 8.22384C1.00007 6.30814 1.86698 4.47046 3.40956 3.11583C4.95214 1.76128 7.04428 1.00006 9.22578 1H23.7742ZM9.22578 28.2234C7.54908 28.2235 5.9408 28.8086 4.75513 29.8497C3.56956 30.8909 2.90312 32.3037 2.90312 33.7762C2.90324 35.2486 3.56948 36.6615 4.75513 37.7026C5.94079 38.7437 7.54916 39.3288 9.22578 39.3289C10.9024 39.3289 12.5107 38.7436 13.6964 37.7026C14.8821 36.6615 15.5483 35.2486 15.5484 33.7762V28.2234H9.22578ZM9.22578 15.4477C7.54901 15.4477 5.94082 16.0327 4.75513 17.0739C3.56956 18.1152 2.90312 19.5279 2.90312 21.0004C2.90332 22.4727 3.56961 23.885 4.75513 24.9261C5.94081 25.9672 7.54906 26.5523 9.22578 26.5523H15.5484V15.4477H9.22578ZM23.7742 15.4477C22.9442 15.4477 22.1222 15.5915 21.3554 15.8704C20.5884 16.1494 19.8906 16.5584 19.3036 17.0739C18.7166 17.5895 18.2506 18.2021 17.9329 18.8756C17.6154 19.5491 17.4516 20.2715 17.4516 21.0004L17.459 21.2729C17.4947 21.9088 17.6549 22.5358 17.9329 23.1252C18.2506 23.7986 18.7167 24.4106 19.3036 24.9261C19.8907 25.4416 20.5883 25.8506 21.3554 26.1296C22.1223 26.4085 22.9442 26.5523 23.7742 26.5523C24.6044 26.5523 25.427 26.4086 26.194 26.1296C26.961 25.8507 27.6587 25.4415 28.2458 24.9261C28.8325 24.4107 29.2978 23.7984 29.6155 23.1252C29.9332 22.4518 30.0968 21.7293 30.0969 21.0004C30.0969 20.2714 29.9331 19.5491 29.6155 18.8756C29.2978 18.2021 28.8328 17.5894 28.2458 17.0739C27.6587 16.5583 26.9611 16.1494 26.194 15.8704C25.4269 15.5913 24.6045 15.4477 23.7742 15.4477ZM17.4516 15.4469V16.3803C17.6116 16.2115 17.7805 16.0483 17.958 15.8924C18.136 15.7361 18.3227 15.5877 18.5156 15.4469H17.4516ZM9.22578 2.67112C7.54904 2.67118 5.94081 3.2562 4.75513 4.29736C3.56943 5.33859 2.90319 6.75131 2.90312 8.22384C2.9032 9.69624 3.56964 11.1083 4.75513 12.1495C5.94082 13.1907 7.54899 13.7757 9.22578 13.7757H15.5484V2.67112H9.22578ZM17.4516 13.7757H23.7742C24.6045 13.7757 25.4269 13.6321 26.194 13.3531C26.9611 13.074 27.6587 12.6651 28.2458 12.1495C28.8326 11.6341 29.2979 11.022 29.6155 10.3486C29.9332 9.67512 30.0968 8.95286 30.0969 8.22384C30.0968 7.49481 29.9332 6.77259 29.6155 6.09904C29.2978 5.42556 28.8328 4.81285 28.2458 4.29736C27.6587 3.78186 26.961 3.3728 26.194 3.0938C25.427 2.81483 24.6044 2.67112 23.7742 2.67112H17.4516V13.7757Z" fill="#EDEDF5" stroke="#EDEDF5" stroke-width="2" stroke-linecap="round" stroke-linejoin="round"/>
</svg>
