<svg width="40" height="40" viewBox="0 0 40 40" fill="none" xmlns="http://www.w3.org/2000/svg">
<path d="M39.2446 18.2169L21.7805 0.754519C21.2968 0.27137 20.641 0 19.9573 0C19.2736 0 18.6179 0.27137 18.1341 0.754519L14.5157 4.37743L19.1142 8.97858C19.6568 8.79523 20.2399 8.76761 20.7973 8.89885C21.3548 9.03009 21.8643 9.31494 22.2681 9.7211C22.6719 10.1273 22.9539 10.6385 23.0819 11.1967C23.21 11.755 23.1791 12.338 22.9927 12.8796L27.4212 17.3147C28.0769 17.0846 28.7913 17.0845 29.447 17.3144C30.1027 17.5443 30.6607 17.9906 31.0291 18.5798C31.3976 19.169 31.5546 19.866 31.4744 20.5563C31.3941 21.2466 31.0814 21.889 30.5876 22.3779C29.3894 23.5782 27.4552 23.5782 26.2551 22.3779C25.8297 21.9506 25.539 21.4077 25.4192 20.8167C25.2994 20.2257 25.3556 19.6125 25.581 19.0531L21.4325 14.9261V25.8028C21.7245 25.9448 22.0046 26.1409 22.2466 26.3829C22.8185 26.9589 23.1394 27.7377 23.1394 28.5495C23.1394 29.3612 22.8185 30.14 22.2466 30.716C21.9612 31.0019 21.6223 31.2287 21.2492 31.3834C20.8762 31.5381 20.4762 31.6178 20.0723 31.6178C19.6685 31.6178 19.2685 31.5381 18.8954 31.3834C18.5224 31.2287 18.1835 31.0019 17.8981 30.716C17.6138 30.4318 17.3883 30.0944 17.2345 29.723C17.0807 29.3516 17.0015 28.9535 17.0015 28.5515C17.0015 28.1495 17.0807 27.7514 17.2345 27.38C17.3883 27.0086 17.6138 26.6712 17.8981 26.3869C18.2048 26.0855 18.5408 25.8595 18.9062 25.7088V14.726C18.5324 14.5727 18.1926 14.3468 17.9065 14.0614C17.6205 13.7761 17.3937 13.4369 17.2393 13.0634C17.085 12.69 17.0061 12.2897 17.0073 11.8856C17.0084 11.4815 17.0896 11.0816 17.246 10.709L12.7255 6.16588L0.750088 18.1329C-0.250029 19.1411 -0.250029 20.7735 0.750088 21.7818L18.2141 39.2442C18.4531 39.4838 18.7369 39.6738 19.0494 39.8035C19.362 39.9332 19.697 40 20.0353 40C20.3737 40 20.7087 39.9332 21.0212 39.8035C21.3337 39.6738 21.6176 39.4838 21.8566 39.2442L39.2386 21.8618C39.4793 21.6235 39.6705 21.3398 39.8012 21.0273C39.9319 20.7147 39.9994 20.3794 40 20.0406C40.0006 19.7018 39.9341 19.3663 39.8044 19.0533C39.6748 18.7403 39.4845 18.456 39.2446 18.2169Z" fill="#EDEDF5"/>
</svg>
