<svg width="27" height="40" viewBox="0 0 27 40" fill="none" xmlns="http://www.w3.org/2000/svg">
<path d="M26.667 9.33496L24.2363 36.9297L13.3164 40L2.42773 36.9355L0 9.33301L26.667 9.33496ZM5.86328 25.2129H17.4346L17.0469 29.6016L13.3242 30.6221H13.3203L9.60059 29.6055L9.36426 26.9053H6.01367L6.48047 32.2197L13.3184 34.1455L13.335 34.1416L20.168 32.2197L21.001 22.7354L21.084 21.8271H8.91602L8.61133 18.3613H21.3867L21.6865 14.9766H4.96289L5.86328 25.2129ZM2.08105 2.2002H3.98242V0H6.06348V6.66699H3.98242V4.43457H2.08105V6.66699H0V0H2.08105V2.2002ZM12.71 2.20996H10.8789V6.66699H8.79785V2.20996H6.96777V0H12.71V2.20996ZM17.124 2.34375L18.458 0H20.626V6.66699H18.5547V3.36133L17.124 5.73438H17.0898L15.6562 3.36133V6.66699H13.6221L13.6191 0H15.7881L17.124 2.34375ZM23.7412 4.46387H26.667V6.66699H21.6602L21.6621 0H23.7412V4.46387Z" fill="#EDEDF5"/>
</svg>
