<svg width="40" height="40" viewBox="0 0 40 40" fill="none" xmlns="http://www.w3.org/2000/svg">
<path fill-rule="evenodd" clip-rule="evenodd" d="M7.27273 0C5.34388 0 3.49403 0.766232 2.13013 2.13013C0.766232 3.49403 0 5.34388 0 7.27273V32.7273C0 34.6561 0.766232 36.506 2.13013 37.8699C3.49403 39.2338 5.34388 40 7.27273 40H32.7273C34.6561 40 36.506 39.2338 37.8699 37.8699C39.2338 36.506 40 34.6561 40 32.7273V7.27273C40 5.34388 39.2338 3.49403 37.8699 2.13013C36.506 0.766232 34.6561 0 32.7273 0H7.27273ZM28.0873 13.9491C28.5695 13.9491 29.0319 13.7575 29.3729 13.4166C29.7139 13.0756 29.9055 12.6131 29.9055 12.1309C29.9055 11.6487 29.7139 11.1862 29.3729 10.8453C29.0319 10.5043 28.5695 10.3127 28.0873 10.3127C27.6051 10.3127 27.1426 10.5043 26.8016 10.8453C26.4606 11.1862 26.2691 11.6487 26.2691 12.1309C26.2691 12.6131 26.4606 13.0756 26.8016 13.4166C27.1426 13.7575 27.6051 13.9491 28.0873 13.9491ZM29.9055 29.04V15.9073H26.2691V29.04H29.9055ZM7.04727 29.04L12.8545 12.4436V11.2436H17.4927L23.9182 29.04H19.9327L18.42 24.8818H12.1327L10.7236 29.04H7.04727ZM13.1291 21.3436H17.3891L15.26 14.4036L13.1291 21.3436Z" fill="#EDEDF5"/>
</svg>
