<svg width="40" height="40" viewBox="0 0 40 40" fill="none" xmlns="http://www.w3.org/2000/svg">
<path fill-rule="evenodd" clip-rule="evenodd" d="M7.27273 0C5.34388 0 3.49403 0.766232 2.13013 2.13013C0.766232 3.49403 0 5.34388 0 7.27273V32.7273C0 34.6561 0.766232 36.506 2.13013 37.8699C3.49403 39.2338 5.34388 40 7.27273 40H32.7273C34.6561 40 36.506 39.2338 37.8699 37.8699C39.2338 36.506 40 34.6561 40 32.7273V7.27273C40 5.34388 39.2338 3.49403 37.8699 2.13013C36.506 0.766232 34.6561 0 32.7273 0H7.27273ZM25.4545 10H29.0909V27.8C28.0636 28.1564 25.5382 28.8727 23.6582 28.8727C21.3091 28.8727 17.1455 27.6636 17.1455 22.0255C17.1455 17.14 21.2127 15.2982 25.4545 15.2982V10ZM25.4545 18.4073V25.68C23.9455 25.68 20.9091 25.2927 20.9091 22.0436C20.9091 18.7945 23.9455 18.4073 25.4545 18.4073ZM14.5455 11.8182H10.9091V28.1818H14.5455V11.8182Z" fill="#EDEDF5"/>
</svg>
