<svg width="40" height="40" viewBox="0 0 40 40" fill="none" xmlns="http://www.w3.org/2000/svg">
<path fill-rule="evenodd" clip-rule="evenodd" d="M7.27273 0C5.34388 0 3.49403 0.766232 2.13013 2.13013C0.766232 3.49403 0 5.34388 0 7.27273V32.7273C0 34.6561 0.766232 36.506 2.13013 37.8699C3.49403 39.2338 5.34388 40 7.27273 40H32.7273C34.6561 40 36.506 39.2338 37.8699 37.8699C39.2338 36.506 40 34.6561 40 32.7273V7.27273C40 5.34388 39.2338 3.49403 37.8699 2.13013C36.506 0.766232 34.6561 0 32.7273 0H7.27273ZM9.09091 9.09091H12.7273V26.3636H20.9091L20 30H9.09091V9.09091ZM24.5455 16.3636V30H28.1818V22.2727C28.5189 21.6675 28.9982 21.1534 29.5782 20.7745C30.2636 20.3345 31.2527 20 32.7273 20V16.3636C30.9527 16.3636 29.4418 16.72 28.1818 17.3818V16.3636H24.5455Z" fill="#EDEDF5"/>
</svg>
