<svg width="40" height="40" viewBox="0 0 40 40" fill="none" xmlns="http://www.w3.org/2000/svg">
<path fill-rule="evenodd" clip-rule="evenodd" d="M7.27273 0C5.34388 0 3.49403 0.766232 2.13013 2.13013C0.766232 3.49403 0 5.34388 0 7.27273V32.7273C0 34.6561 0.766232 36.506 2.13013 37.8699C3.49403 39.2338 5.34388 40 7.27273 40H32.7273C34.6561 40 36.506 39.2338 37.8699 37.8699C39.2338 36.506 40 34.6561 40 32.7273V7.27273C40 5.34388 39.2338 3.49403 37.8699 2.13013C36.506 0.766232 34.6561 0 32.7273 0H7.27273ZM8.18182 10.9091H14.5455C16.2332 10.9091 17.8518 11.5795 19.0452 12.773C20.2386 13.9664 20.9091 15.585 20.9091 17.2727C20.9091 18.9605 20.2386 20.5791 19.0452 21.7725C17.8518 22.9659 16.2332 23.6364 14.5455 23.6364H11.8182V29.0909H8.18182V10.9091ZM11.8182 20H14.5455C15.2688 20 15.9625 19.7127 16.4739 19.2012C16.9854 18.6897 17.2727 17.996 17.2727 17.2727C17.2727 16.5494 16.9854 15.8557 16.4739 15.3443C15.9625 14.8328 15.2688 14.5455 14.5455 14.5455H11.8182V20ZM30.7727 19.3345C29.2145 18.9836 27.5636 18.7073 26.3673 18.7964C25.7618 18.84 24.9891 19.0291 25.7673 19.6545C26.4091 20.1673 27.1673 20.4891 27.9273 20.8091C28.7091 21.14 29.4945 21.4727 30.16 22.02C31.0891 22.7836 31.8182 23.8964 31.8182 25.4545C31.8182 27.0091 31.0836 28.2 29.9127 28.9091C28.8782 29.5345 27.6291 29.7127 26.5473 29.74C24.7982 29.7836 22.8709 29.4345 21.4345 29.0818V25.3218C22.7582 25.7 24.8127 26.1455 26.4564 26.1036C27.3109 26.0836 27.8145 25.9273 28.0436 25.7891C28.4073 25.5709 28.0764 25.0145 27.8527 24.8309C27.2127 24.3036 26.4436 23.98 25.6709 23.6545C24.9073 23.3327 24.14 23.0091 23.4927 22.4909C22.5655 21.7455 21.8182 20.6455 21.8182 19.0909C21.8182 17.8273 22.3455 16.7636 23.3091 16.0636C24.1673 15.4455 25.2073 15.2345 26.0964 15.1691C27.5964 15.0582 29.3273 15.3182 30.7727 15.6145V19.3345Z" fill="#EDEDF5"/>
</svg>
