<svg width="40" height="40" viewBox="0 0 40 40" fill="none" xmlns="http://www.w3.org/2000/svg">
<path fill-rule="evenodd" clip-rule="evenodd" d="M7.27273 0C5.34388 0 3.49403 0.766232 2.13013 2.13013C0.766232 3.49403 0 5.34388 0 7.27273V32.7273C0 34.6561 0.766232 36.506 2.13013 37.8699C3.49403 39.2338 5.34388 40 7.27273 40H32.7273C34.6561 40 36.506 39.2338 37.8699 37.8699C39.2338 36.506 40 34.6561 40 32.7273V7.27273C40 5.34388 39.2338 3.49403 37.8699 2.13013C36.506 0.766232 34.6561 0 32.7273 0H7.27273ZM10.9091 10H9.09091V28.1818H12.7273V22.7273H15.4545C16.2902 22.7273 17.1177 22.5627 17.8898 22.2429C18.6619 21.9231 19.3634 21.4543 19.9543 20.8634C20.5452 20.2725 21.014 19.571 21.3338 18.7989C21.6536 18.0268 21.8182 17.1993 21.8182 16.3636C21.8182 15.528 21.6536 14.7005 21.3338 13.9284C21.014 13.1563 20.5452 12.4548 19.9543 11.8639C19.3634 11.2729 18.6619 10.8042 17.8898 10.4844C17.1177 10.1646 16.2902 10 15.4545 10H10.9091ZM15.4545 19.0909H12.7273V13.6364H15.4545C16.1779 13.6364 16.8716 13.9237 17.383 14.4352C17.8945 14.9466 18.1818 15.6403 18.1818 16.3636C18.1818 17.087 17.8945 17.7806 17.383 18.2921C16.8716 18.8036 16.1779 19.0909 15.4545 19.0909ZM24.5455 14.5455V28.1818H28.1818V20.4545C28.5189 19.8493 28.9982 19.3352 29.5782 18.9564C30.2636 18.5164 31.2527 18.1818 32.7273 18.1818V14.5455C30.9527 14.5455 29.4418 14.9018 28.1818 15.5636V14.5455H24.5455Z" fill="#EDEDF5"/>
</svg>
