<svg width="47" height="43" viewBox="0 0 47 43" fill="none" xmlns="http://www.w3.org/2000/svg">
<path fill-rule="evenodd" clip-rule="evenodd" d="M22.7295 18.5789C23.4896 18.3689 24.3011 18.4733 24.9858 18.8694C25.3277 19.0672 25.6283 19.3318 25.8693 19.6481C26.1102 19.9643 26.287 20.326 26.3901 20.7121C26.4931 21.0983 26.5206 21.5019 26.4699 21.8988C26.4192 22.2956 26.2911 22.6784 26.0944 23.025C25.8978 23.3716 25.6355 23.6756 25.3231 23.9187C25.0107 24.1617 24.6541 24.3402 24.2739 24.4425C23.8938 24.5447 23.4971 24.5693 23.1075 24.5151C22.7179 24.4608 22.3424 24.3285 22.0031 24.1261C21.3237 23.7207 20.8291 23.0582 20.6278 22.2834C20.4265 21.5087 20.5348 20.6844 20.9285 19.9904C21.3222 19.2965 21.9696 18.7891 22.7295 18.5789ZM24.1261 20.4078C23.8408 20.2428 23.5024 20.1993 23.1857 20.2868C22.8691 20.3744 22.5988 20.5862 22.4347 20.8754C22.2708 21.1646 22.226 21.5086 22.3098 21.8314C22.3938 22.1542 22.6002 22.43 22.8832 22.5989C23.0245 22.6831 23.1807 22.7387 23.3428 22.7614C23.5051 22.784 23.6712 22.7737 23.8296 22.7311C23.9879 22.6885 24.1362 22.6136 24.2663 22.5124C24.3964 22.4112 24.5063 22.2843 24.5882 22.1399C24.6701 21.9956 24.7234 21.8359 24.7445 21.6706C24.7656 21.5052 24.7543 21.3372 24.7114 21.1762C24.6685 21.0153 24.5943 20.8646 24.4939 20.7328C24.3935 20.6011 24.2685 20.4903 24.1261 20.4078Z" fill="#EDEDF5"/>
<path fill-rule="evenodd" clip-rule="evenodd" d="M30.1364 1.8207C31.6892 1.34984 33.2137 1.35957 34.4979 2.1137L34.4987 2.11283C36.0868 3.04337 36.8851 4.85938 37.1339 6.9945C37.3598 8.93303 37.1523 11.2701 36.5741 13.8174C37.3448 14.0571 38.0772 14.3162 38.765 14.5962C40.7373 15.3989 42.3917 16.3774 43.5673 17.5089C44.7449 18.6423 45.4999 19.9909 45.5 21.5003C45.5 23.3643 44.3547 24.9751 42.6626 26.2619C41.1257 27.4304 39.0329 28.4169 36.5758 29.1815C36.757 29.9805 36.9018 30.7554 37.0074 31.5013C37.3102 33.6409 37.3043 35.5878 36.9292 37.1894C36.5535 38.7935 35.784 40.1335 34.4996 40.8878L34.4987 40.887C32.9133 41.8195 30.9705 41.6155 29.0304 40.7677C27.2671 39.9971 25.3804 38.646 23.5009 36.8618C22.9113 37.4213 22.3247 37.9375 21.7423 38.4038C20.0728 39.7405 18.4127 40.7097 16.8619 41.18C15.3088 41.6509 13.7839 41.6417 12.4996 40.887C10.9134 39.9564 10.1145 38.1424 9.86522 36.0088C9.63871 34.0696 9.84486 31.7314 10.4234 29.1824C9.6538 28.9429 8.92273 28.684 8.23584 28.4045C6.26331 27.6017 4.60842 26.6233 3.43266 25.4918C2.25504 24.3584 1.50004 23.0099 1.5 21.5003C1.50012 19.6364 2.64503 18.0262 4.33654 16.7397C5.87351 15.5708 7.96577 14.5829 10.4234 13.8174C10.2424 13.0194 10.0973 12.2454 9.99179 11.5002C9.68892 9.36049 9.694 7.41295 10.0691 5.81125C10.4447 4.20764 11.215 2.869 12.4987 2.11456C14.0849 1.18168 16.0288 1.3849 17.9696 2.23211C19.7336 3.00222 21.6207 4.35292 23.5 6.1371C24.0889 5.57844 24.6743 5.06259 25.256 4.59688C26.9255 3.26015 28.5856 2.29105 30.1364 1.8207ZM12.1012 29.6552C11.5655 32.0444 11.3994 34.1421 11.5931 35.8005C11.8118 37.6712 12.4623 38.8219 13.3686 39.3537L13.3695 39.3545C14.106 39.7874 15.0977 39.8675 16.3649 39.4833C17.6347 39.0983 19.0999 38.2677 20.6669 37.0131C21.3886 36.4352 22.1227 35.7719 22.8629 35.0338C22.8683 35.0279 22.8734 35.0215 22.879 35.0157C22.8924 35.0018 22.9066 34.9887 22.9206 34.9759C24.0932 33.8007 25.2762 32.4346 26.4317 30.905C25.4727 30.9584 24.4938 30.9862 23.5 30.9862C19.3348 30.9862 15.4276 30.5017 12.1012 29.6552ZM32.9687 23.6179C32.5349 24.49 32.0697 25.3652 31.5721 26.2428C29.4908 29.9119 27.1257 33.1113 24.7428 35.619C26.5077 37.286 28.2087 38.4828 29.7168 39.1419C31.4183 39.8855 32.7241 39.8875 33.6297 39.3545C34.3661 38.922 34.9303 38.0885 35.237 36.7797C35.5441 35.4682 35.5696 33.761 35.2854 31.7529C35.1564 30.8419 34.9625 29.8792 34.7103 28.8747C34.7026 28.8532 34.6951 28.8314 34.689 28.809C34.679 28.7722 34.6722 28.7352 34.6669 28.6984C34.254 27.0917 33.6857 25.3831 32.9687 23.6179ZM23.5 13.7846C22.0342 13.7846 20.6037 13.8462 19.2235 13.9644C18.4352 15.1194 17.6671 16.3483 16.9332 17.642C16.2001 18.9336 15.5381 20.2255 14.9487 21.4995C15.3935 22.4605 15.8786 23.4332 16.4065 24.4088L16.9332 25.3586C17.6651 26.6514 18.4347 27.8803 19.2244 29.0355C20.6016 29.1527 22.0319 29.2161 23.5 29.2161C24.9669 29.2161 26.398 29.153 27.7756 29.0346C28.5635 27.88 29.3315 26.6518 30.0651 25.3586C30.8003 24.0619 31.4607 22.7743 32.0487 21.4977C31.4601 20.2263 30.7987 18.9357 30.0651 17.6429C29.3518 16.3846 28.5885 15.1579 27.7756 13.9644C26.3983 13.8472 24.9682 13.7846 23.5 13.7846ZM10.8609 15.5322C8.56039 16.2553 6.69253 17.1575 5.37806 18.1572C3.89523 19.285 3.23994 20.4339 3.23982 21.5003C3.23985 22.3666 3.66733 23.2811 4.62793 24.2056C5.59055 25.1321 7.03042 26.0072 8.88147 26.7606C9.73654 27.1086 10.6708 27.4249 11.6721 27.7087C11.6758 27.7096 11.6795 27.7104 11.6832 27.7113C11.6908 27.7133 11.6986 27.716 11.7061 27.7182C13.3016 28.1685 15.0679 28.5302 16.9613 28.7857C16.4364 27.9677 15.9225 27.1195 15.4262 26.2428C14.6029 24.7921 13.8665 23.3379 13.2157 21.904C13.2032 21.8791 13.1919 21.8538 13.1817 21.8279C12.2023 19.6603 11.4242 17.5375 10.8609 15.5322ZM30.0362 14.2141C30.5706 15.0475 31.083 15.895 31.5721 16.7578L32.1141 17.7354C33.9238 21.0789 35.2801 24.4095 36.1391 27.4659C38.4387 26.7438 40.3067 25.8438 41.6211 24.8444C43.1047 23.7162 43.7601 22.5667 43.7602 21.5003C43.7601 20.6341 43.3326 19.7196 42.3721 18.795C41.4094 17.8685 39.9697 16.9926 38.1185 16.2392C37.2866 15.9007 36.3793 15.5923 35.4086 15.3144C35.377 15.3098 35.345 15.3046 35.3134 15.2963C35.2693 15.2846 35.2274 15.2683 35.1868 15.2505C33.6189 14.814 31.8881 14.4637 30.0362 14.2141ZM17.2832 3.85876C15.5819 3.11613 14.2765 3.11267 13.3695 3.64613C12.633 4.07872 12.0679 4.91287 11.7613 6.2218C11.4542 7.53331 11.4295 9.23973 11.7138 11.2478C11.8438 12.1661 12.0379 13.1377 12.2931 14.151C12.2975 14.1646 12.3029 14.1778 12.3067 14.1917C12.3148 14.2212 12.3213 14.2511 12.3263 14.2807C12.7395 15.8937 13.3096 17.6096 14.0296 19.3828C14.4636 18.5103 14.9288 17.6332 15.4262 16.757C16.2507 15.3036 17.1213 13.9249 18.0181 12.6324C18.0247 12.6221 18.0322 12.6122 18.0393 12.6022C19.4006 10.6432 20.8257 8.88602 22.258 7.37912C20.4934 5.7125 18.7917 4.51728 17.2832 3.85876ZM33.6297 3.64613C32.8931 3.21332 31.9006 3.13221 30.6334 3.51649C29.3637 3.90157 27.8991 4.73312 26.3323 5.98757C24.4487 7.49577 22.4709 9.57495 20.5666 12.0957C21.5267 12.0422 22.5061 12.0145 23.5 12.0145C25.1548 12.0145 26.7687 12.0934 28.3219 12.2383C28.3239 12.2385 28.3258 12.239 28.3278 12.2392C30.6808 12.459 32.8938 12.8352 34.8963 13.3446C35.4318 10.9571 35.5992 8.86088 35.406 7.2028C35.1878 5.33042 34.5376 4.1786 33.6305 3.647L33.6297 3.64613Z" fill="#EDEDF5"/>
<path fill-rule="evenodd" clip-rule="evenodd" d="M22.7295 18.5789C23.4896 18.3689 24.3011 18.4733 24.9858 18.8694C25.3277 19.0672 25.6283 19.3318 25.8693 19.6481C26.1102 19.9643 26.287 20.326 26.3901 20.7121C26.4931 21.0983 26.5206 21.5019 26.4699 21.8988C26.4192 22.2956 26.2911 22.6784 26.0944 23.025C25.8978 23.3716 25.6355 23.6756 25.3231 23.9187C25.0107 24.1617 24.6541 24.3402 24.2739 24.4425C23.8938 24.5447 23.4971 24.5693 23.1075 24.5151C22.7179 24.4608 22.3424 24.3285 22.0031 24.1261C21.3237 23.7207 20.8291 23.0582 20.6278 22.2834C20.4265 21.5087 20.5348 20.6844 20.9285 19.9904C21.3222 19.2965 21.9696 18.7891 22.7295 18.5789ZM24.1261 20.4078C23.8408 20.2428 23.5024 20.1993 23.1857 20.2868C22.8691 20.3744 22.5988 20.5862 22.4347 20.8754C22.2708 21.1646 22.226 21.5086 22.3098 21.8314C22.3938 22.1542 22.6002 22.43 22.8832 22.5989C23.0245 22.6831 23.1807 22.7387 23.3428 22.7614C23.5051 22.784 23.6712 22.7737 23.8296 22.7311C23.9879 22.6885 24.1362 22.6136 24.2663 22.5124C24.3964 22.4112 24.5063 22.2843 24.5882 22.1399C24.6701 21.9956 24.7234 21.8359 24.7445 21.6706C24.7656 21.5052 24.7543 21.3372 24.7114 21.1762C24.6685 21.0153 24.5943 20.8646 24.4939 20.7328C24.3935 20.6011 24.2685 20.4903 24.1261 20.4078Z" stroke="#EDEDF5" stroke-width="3" stroke-linecap="round" stroke-linejoin="round"/>
<path fill-rule="evenodd" clip-rule="evenodd" d="M30.1364 1.8207C31.6892 1.34984 33.2137 1.35957 34.4979 2.1137L34.4987 2.11283C36.0868 3.04337 36.8851 4.85938 37.1339 6.9945C37.3598 8.93303 37.1523 11.2701 36.5741 13.8174C37.3448 14.0571 38.0772 14.3162 38.765 14.5962C40.7373 15.3989 42.3917 16.3774 43.5673 17.5089C44.7449 18.6423 45.4999 19.9909 45.5 21.5003C45.5 23.3643 44.3547 24.9751 42.6626 26.2619C41.1257 27.4304 39.0329 28.4169 36.5758 29.1815C36.757 29.9805 36.9018 30.7554 37.0074 31.5013C37.3102 33.6409 37.3043 35.5878 36.9292 37.1894C36.5535 38.7935 35.784 40.1335 34.4996 40.8878L34.4987 40.887C32.9133 41.8195 30.9705 41.6155 29.0304 40.7677C27.2671 39.9971 25.3804 38.646 23.5009 36.8618C22.9113 37.4213 22.3247 37.9375 21.7423 38.4038C20.0728 39.7405 18.4127 40.7097 16.8619 41.18C15.3088 41.6509 13.7839 41.6417 12.4996 40.887C10.9134 39.9564 10.1145 38.1424 9.86522 36.0088C9.63871 34.0696 9.84486 31.7314 10.4234 29.1824C9.6538 28.9429 8.92273 28.684 8.23584 28.4045C6.26331 27.6017 4.60842 26.6233 3.43266 25.4918C2.25504 24.3584 1.50004 23.0099 1.5 21.5003C1.50012 19.6364 2.64503 18.0262 4.33654 16.7397C5.87351 15.5708 7.96577 14.5829 10.4234 13.8174C10.2424 13.0194 10.0973 12.2454 9.99179 11.5002C9.68892 9.36049 9.694 7.41295 10.0691 5.81125C10.4447 4.20764 11.215 2.869 12.4987 2.11456C14.0849 1.18168 16.0288 1.3849 17.9696 2.23211C19.7336 3.00222 21.6207 4.35292 23.5 6.1371C24.0889 5.57844 24.6743 5.06259 25.256 4.59688C26.9255 3.26015 28.5856 2.29105 30.1364 1.8207ZM12.1012 29.6552C11.5655 32.0444 11.3994 34.1421 11.5931 35.8005C11.8118 37.6712 12.4623 38.8219 13.3686 39.3537L13.3695 39.3545C14.106 39.7874 15.0977 39.8675 16.3649 39.4833C17.6347 39.0983 19.0999 38.2677 20.6669 37.0131C21.3886 36.4352 22.1227 35.7719 22.8629 35.0338C22.8683 35.0279 22.8734 35.0215 22.879 35.0157C22.8924 35.0018 22.9066 34.9887 22.9206 34.9759C24.0932 33.8007 25.2762 32.4346 26.4317 30.905C25.4727 30.9584 24.4938 30.9862 23.5 30.9862C19.3348 30.9862 15.4276 30.5017 12.1012 29.6552ZM32.9687 23.6179C32.5349 24.49 32.0697 25.3652 31.5721 26.2428C29.4908 29.9119 27.1257 33.1113 24.7428 35.619C26.5077 37.286 28.2087 38.4828 29.7168 39.1419C31.4183 39.8855 32.7241 39.8875 33.6297 39.3545C34.3661 38.922 34.9303 38.0885 35.237 36.7797C35.5441 35.4682 35.5696 33.761 35.2854 31.7529C35.1564 30.8419 34.9625 29.8792 34.7103 28.8747C34.7026 28.8532 34.6951 28.8314 34.689 28.809C34.679 28.7722 34.6722 28.7352 34.6669 28.6984C34.254 27.0917 33.6857 25.3831 32.9687 23.6179ZM23.5 13.7846C22.0342 13.7846 20.6037 13.8462 19.2235 13.9644C18.4352 15.1194 17.6671 16.3483 16.9332 17.642C16.2001 18.9336 15.5381 20.2255 14.9487 21.4995C15.3935 22.4605 15.8786 23.4332 16.4065 24.4088L16.9332 25.3586C17.6651 26.6514 18.4347 27.8803 19.2244 29.0355C20.6016 29.1527 22.0319 29.2161 23.5 29.2161C24.9669 29.2161 26.398 29.153 27.7756 29.0346C28.5635 27.88 29.3315 26.6518 30.0651 25.3586C30.8003 24.0619 31.4607 22.7743 32.0487 21.4977C31.4601 20.2263 30.7987 18.9357 30.0651 17.6429C29.3518 16.3846 28.5885 15.1579 27.7756 13.9644C26.3983 13.8472 24.9682 13.7846 23.5 13.7846ZM10.8609 15.5322C8.56039 16.2553 6.69253 17.1575 5.37806 18.1572C3.89523 19.285 3.23994 20.4339 3.23982 21.5003C3.23985 22.3666 3.66733 23.2811 4.62793 24.2056C5.59055 25.1321 7.03042 26.0072 8.88147 26.7606C9.73654 27.1086 10.6708 27.4249 11.6721 27.7087C11.6758 27.7096 11.6795 27.7104 11.6832 27.7113C11.6908 27.7133 11.6986 27.716 11.7061 27.7182C13.3016 28.1685 15.0679 28.5302 16.9613 28.7857C16.4364 27.9677 15.9225 27.1195 15.4262 26.2428C14.6029 24.7921 13.8665 23.3379 13.2157 21.904C13.2032 21.8791 13.1919 21.8538 13.1817 21.8279C12.2023 19.6603 11.4242 17.5375 10.8609 15.5322ZM30.0362 14.2141C30.5706 15.0475 31.083 15.895 31.5721 16.7578L32.1141 17.7354C33.9238 21.0789 35.2801 24.4095 36.1391 27.4659C38.4387 26.7438 40.3067 25.8438 41.6211 24.8444C43.1047 23.7162 43.7601 22.5667 43.7602 21.5003C43.7601 20.6341 43.3326 19.7196 42.3721 18.795C41.4094 17.8685 39.9697 16.9926 38.1185 16.2392C37.2866 15.9007 36.3793 15.5923 35.4086 15.3144C35.377 15.3098 35.345 15.3046 35.3134 15.2963C35.2693 15.2846 35.2274 15.2683 35.1868 15.2505C33.6189 14.814 31.8881 14.4637 30.0362 14.2141ZM17.2832 3.85876C15.5819 3.11613 14.2765 3.11267 13.3695 3.64613C12.633 4.07872 12.0679 4.91287 11.7613 6.2218C11.4542 7.53331 11.4295 9.23973 11.7138 11.2478C11.8438 12.1661 12.0379 13.1377 12.2931 14.151C12.2975 14.1646 12.3029 14.1778 12.3067 14.1917C12.3148 14.2212 12.3213 14.2511 12.3263 14.2807C12.7395 15.8937 13.3096 17.6096 14.0296 19.3828C14.4636 18.5103 14.9288 17.6332 15.4262 16.757C16.2507 15.3036 17.1213 13.9249 18.0181 12.6324C18.0247 12.6221 18.0322 12.6122 18.0393 12.6022C19.4006 10.6432 20.8257 8.88602 22.258 7.37912C20.4934 5.7125 18.7917 4.51728 17.2832 3.85876ZM33.6297 3.64613C32.8931 3.21332 31.9006 3.13221 30.6334 3.51649C29.3637 3.90157 27.8991 4.73312 26.3323 5.98757C24.4487 7.49577 22.4709 9.57495 20.5666 12.0957C21.5267 12.0422 22.5061 12.0145 23.5 12.0145C25.1548 12.0145 26.7687 12.0934 28.3219 12.2383C28.3239 12.2385 28.3258 12.239 28.3278 12.2392C30.6808 12.459 32.8938 12.8352 34.8963 13.3446C35.4318 10.9571 35.5992 8.86088 35.406 7.2028C35.1878 5.33042 34.5376 4.1786 33.6305 3.647L33.6297 3.64613Z" stroke="#EDEDF5" stroke-width="3" stroke-linecap="round" stroke-linejoin="round"/>
</svg>
