<svg width="40" height="40" viewBox="0 0 40 40" fill="none" xmlns="http://www.w3.org/2000/svg">
<path d="M8.42105 25.2632C8.42105 26.3799 7.97745 27.4508 7.18782 28.2404C6.39819 29.0301 5.32723 29.4737 4.21053 29.4737C3.09383 29.4737 2.02286 29.0301 1.23323 28.2404C0.443608 27.4508 0 26.3799 0 25.2632C0 24.1465 0.443608 23.0755 1.23323 22.2859C2.02286 21.4962 3.09383 21.0526 4.21053 21.0526H8.42105V25.2632ZM10.5263 25.2632C10.5263 24.1465 10.9699 23.0755 11.7596 22.2859C12.5492 21.4962 13.6201 21.0526 14.7368 21.0526C15.8535 21.0526 16.9245 21.4962 17.7141 22.2859C18.5038 23.0755 18.9474 24.1465 18.9474 25.2632V35.7895C18.9474 36.9062 18.5038 37.9771 17.7141 38.7668C16.9245 39.5564 15.8535 40 14.7368 40C13.6201 40 12.5492 39.5564 11.7596 38.7668C10.9699 37.9771 10.5263 36.9062 10.5263 35.7895V25.2632ZM14.7368 8.42105C13.6201 8.42105 12.5492 7.97745 11.7596 7.18782C10.9699 6.39819 10.5263 5.32723 10.5263 4.21053C10.5263 3.09383 10.9699 2.02286 11.7596 1.23323C12.5492 0.443608 13.6201 0 14.7368 0C15.8535 0 16.9245 0.443608 17.7141 1.23323C18.5038 2.02286 18.9474 3.09383 18.9474 4.21053V8.42105H14.7368ZM14.7368 10.5263C15.8535 10.5263 16.9245 10.9699 17.7141 11.7596C18.5038 12.5492 18.9474 13.6201 18.9474 14.7368C18.9474 15.8535 18.5038 16.9245 17.7141 17.7141C16.9245 18.5038 15.8535 18.9474 14.7368 18.9474H4.21053C3.09383 18.9474 2.02286 18.5038 1.23323 17.7141C0.443608 16.9245 0 15.8535 0 14.7368C0 13.6201 0.443608 12.5492 1.23323 11.7596C2.02286 10.9699 3.09383 10.5263 4.21053 10.5263H14.7368ZM31.5789 14.7368C31.5789 13.6201 32.0226 12.5492 32.8122 11.7596C33.6018 10.9699 34.6728 10.5263 35.7895 10.5263C36.9062 10.5263 37.9771 10.9699 38.7668 11.7596C39.5564 12.5492 40 13.6201 40 14.7368C40 15.8535 39.5564 16.9245 38.7668 17.7141C37.9771 18.5038 36.9062 18.9474 35.7895 18.9474H31.5789V14.7368ZM29.4737 14.7368C29.4737 15.8535 29.0301 16.9245 28.2404 17.7141C27.4508 18.5038 26.3799 18.9474 25.2632 18.9474C24.1465 18.9474 23.0755 18.5038 22.2859 17.7141C21.4962 16.9245 21.0526 15.8535 21.0526 14.7368V4.21053C21.0526 3.09383 21.4962 2.02286 22.2859 1.23323C23.0755 0.443608 24.1465 0 25.2632 0C26.3799 0 27.4508 0.443608 28.2404 1.23323C29.0301 2.02286 29.4737 3.09383 29.4737 4.21053V14.7368ZM25.2632 31.5789C26.3799 31.5789 27.4508 32.0226 28.2404 32.8122C29.0301 33.6018 29.4737 34.6728 29.4737 35.7895C29.4737 36.9062 29.0301 37.9771 28.2404 38.7668C27.4508 39.5564 26.3799 40 25.2632 40C24.1465 40 23.0755 39.5564 22.2859 38.7668C21.4962 37.9771 21.0526 36.9062 21.0526 35.7895V31.5789H25.2632ZM25.2632 29.4737C24.1465 29.4737 23.0755 29.0301 22.2859 28.2404C21.4962 27.4508 21.0526 26.3799 21.0526 25.2632C21.0526 24.1465 21.4962 23.0755 22.2859 22.2859C23.0755 21.4962 24.1465 21.0526 25.2632 21.0526H35.7895C36.9062 21.0526 37.9771 21.4962 38.7668 22.2859C39.5564 23.0755 40 24.1465 40 25.2632C40 26.3799 39.5564 27.4508 38.7668 28.2404C37.9771 29.0301 36.9062 29.4737 35.7895 29.4737H25.2632Z" fill="#EDEDF5"/>
</svg>
