<svg width="40" height="40" viewBox="0 0 40 40" fill="none" xmlns="http://www.w3.org/2000/svg">
<path d="M35 0H5C3.67392 0 2.40215 0.526784 1.46447 1.46447C0.526784 2.40215 0 3.67392 0 5V35C0 36.3261 0.526784 37.5979 1.46447 38.5355C2.40215 39.4732 3.67392 40 5 40H35C36.3261 40 37.5979 39.4732 38.5355 38.5355C39.4732 37.5979 40 36.3261 40 35V5C40 3.67392 39.4732 2.40215 38.5355 1.46447C37.5979 0.526784 36.3261 0 35 0ZM17.4 30.4C17.4 31.0365 17.1471 31.647 16.6971 32.0971C16.247 32.5471 15.6365 32.8 15 32.8H7.6C6.28 32.8 5.2 31.72 5.2 30.4V7.6C5.2 6.96348 5.45286 6.35303 5.90294 5.90294C6.35303 5.45286 6.96348 5.2 7.6 5.2H15C16.32 5.2 17.4 6.28 17.4 7.6V30.4ZM34.8 20.4C34.8 21.72 33.72 22.8 32.4 22.8H25C23.68 22.8 22.6 21.72 22.6 20.4V7.6C22.6 6.28 23.68 5.2 25 5.2H32.4C33.72 5.2 34.8 6.28 34.8 7.6V20.4Z" fill="#EDEDF5"/>
</svg>
