<svg width="40" height="40" viewBox="0 0 40 40" fill="none" xmlns="http://www.w3.org/2000/svg">
<path d="M38.5788 4.22947L30.3504 0.250165C29.885 0.0235252 29.3609 -0.0516749 28.851 0.0350258C28.3411 0.121726 27.8708 0.366017 27.5055 0.733914L11.7449 15.1899L4.87639 9.95405C4.56706 9.71633 4.18453 9.5953 3.79552 9.61206C3.40651 9.62882 3.03569 9.78231 2.74773 10.0458L0.547815 12.0612C0.375869 12.2174 0.238312 12.408 0.143972 12.6208C0.0496319 12.8336 0.000593864 13.0638 5.36055e-06 13.2968C-0.000583143 13.5298 0.0472909 13.7603 0.140555 13.9736C0.233818 14.1868 0.370411 14.3781 0.541565 14.5352L6.49883 19.9997L0.541565 25.4642C0.370411 25.6213 0.233818 25.8126 0.140555 26.0258C0.0472909 26.2391 -0.000583143 26.4696 5.36055e-06 26.7026C0.000593864 26.9356 0.0496319 27.1658 0.143972 27.3786C0.238312 27.5914 0.375869 27.782 0.547815 27.9382L2.74773 29.9536C3.03569 30.2171 3.40651 30.3706 3.79552 30.3873C4.18453 30.4041 4.56706 30.2831 4.87639 30.0454L11.7449 24.8033L27.513 39.2655C27.8768 39.6337 28.3461 39.8783 28.8551 39.965C29.3641 40.0517 29.8874 39.9763 30.3516 39.7492L38.5875 35.7636C39.0119 35.5592 39.3699 35.2379 39.6199 34.8372C39.87 34.4364 40.0017 33.9725 40 33.4994V6.49116C40 5.52869 39.4463 4.64537 38.5813 4.22696L38.5788 4.22947ZM30.0041 29.1306L18.0384 20.001L30.0041 10.8713V29.1306Z" fill="#EDEDF5"/>
</svg>
