<svg width="40" height="40" viewBox="0 0 40 40" fill="none" xmlns="http://www.w3.org/2000/svg">
<path d="M20.1735 2.99511e-05C12.3014 -0.01361 4.89196 4.63249 1.49154 11.9867L11.0529 12.0094V13.0502C8.10873 12.6975 8.36798 14.2193 8.78476 15.8344L15.0614 31.4915L19.6747 20.7279L17.5568 15.6836C16.7876 14.3325 16.7713 12.8336 13.6242 12.9748L13.6684 12.0156L27.6915 12.0496V13.1244C26.0493 13.2202 24.0724 12.7134 25.1203 16.0607L30.792 30.8894L33.8924 22.2325C34.9076 18.6036 33.9521 15.1162 32.7457 11.6964C32.0747 9.40218 32.3876 7.48623 35.3952 6.7262C30.8044 2.06202 25.3875 0.00906991 20.1736 2.99511e-05H20.1735ZM39.2456 13.69L30.1541 37.2774C32.6648 35.113 35.2392 34.3252 38.3894 28.3364C40.4853 23.3552 40.2696 18.7406 39.2456 13.6899V13.69ZM0.52921 14.0721C-0.35817 21.0354 -0.276991 23.075 1.91966 28.7613C4.78301 34.2075 7.00345 35.3549 10.155 37.4911L0.52921 14.0721ZM20.5283 22.9075L13.7908 39.0875C18.5201 40.431 22.7518 40.2629 26.6256 38.7682L20.5283 22.9075Z" fill="#EDEDF5"/>
</svg>
