<svg width="40" height="40" viewBox="0 0 40 40" fill="none" xmlns="http://www.w3.org/2000/svg">
<path fill-rule="evenodd" clip-rule="evenodd" d="M7.27273 0C5.34388 0 3.49403 0.766232 2.13013 2.13013C0.766232 3.49403 0 5.34388 0 7.27273V32.7273C0 34.6561 0.766232 36.506 2.13013 37.8699C3.49403 39.2338 5.34388 40 7.27273 40H32.7273C34.6561 40 36.506 39.2338 37.8699 37.8699C39.2338 36.506 40 34.6561 40 32.7273V7.27273C40 5.34388 39.2338 3.49403 37.8699 2.13013C36.506 0.766232 34.6561 0 32.7273 0H7.27273ZM30.1273 10H33.7636V27.8C32.7364 28.1564 30.2109 28.8727 28.3309 28.8727C25.98 28.8727 21.8182 27.6636 21.8182 22.0255C21.8182 17.14 25.8855 15.2982 30.1273 15.2982V10ZM30.1273 18.4073V25.68C28.6182 25.68 25.5818 25.2927 25.5818 22.0436C25.5818 18.7945 28.6182 18.4073 30.1273 18.4073ZM10 12.5091H6.36364L10.9091 20.6909L6.36364 28.8727H10L13.6364 22.5091L17.2727 28.8727H20.9091L16.3636 20.6909L20.9091 12.5091H17.2727L13.6364 18.8727L10 12.5091Z" fill="#EDEDF5"/>
</svg>
